<?xml version="1.0" encoding="UTF-8"?>
<svg id="Layer_2" data-name="Layer 2" xmlns="http://www.w3.org/2000/svg" viewBox="0 0 296.22 299.65">
  <defs>
    <style>
      .cls-1 {
        fill: #e6e7e8;
        stroke-width: 0px;
      }
    </style>
  </defs>
  <g id="Layer_1-2" data-name="Layer 1">
    <path class="cls-1" d="M46.64,140.84c4.67-51.4,48.23-91.56,101.01-90.83s97.82,44.71,98.57,98.57c.67,47.85-32.29,88.13-76.75,98.71-13.58,3.23-23.24,15.26-23.24,29.22v13.13c0,5.81,4.93,10.39,10.72,9.98,77.83-5.5,139.28-70.39,139.28-149.62C296.22,67.05,229.17,0,146.22,0,76.37,0,17.66,47.76.97,112.4c-4.91,19.03,9.37,37.6,29.03,37.6h6.67c5.2,0,9.49-3.99,9.96-9.16Z"/>
  </g>
</svg>