<?xml version="1.0" encoding="UTF-8"?>
<svg id="Layer_2" data-name="Layer 2" xmlns="http://www.w3.org/2000/svg" viewBox="0 0 598.88 598.88">
  <defs>
    <style>
      .cls-1 {
        fill: #e6e7e8;
        stroke-width: 0px;
      }
    </style>
  </defs>
  <g id="Layer_1-2" data-name="Layer 1">
    <path class="cls-1" d="M492.5,353.33c-23.71,84-100.91,145.55-192.5,145.55-110.78,0-200-89.22-200-200,0-91.58,61.55-168.79,145.55-192.5,32.25-9.1,54.45-38.62,54.45-72.12v-9.25c0-14.73-12.67-26.22-27.34-24.9C119.78,13.91,0,142.4,0,298.87c0,165.55,134.45,300.01,300,300,156.47,0,284.96-119.78,298.77-272.66,1.33-14.67-10.17-27.34-24.9-27.34h-9.25c-33.51,0-63.02,22.2-72.12,54.45Z"/>
  </g>
</svg>